<?xml version="1.0" standalone="no"?>
<!DOCTYPE svg PUBLIC "-//W3C//DTD SVG 20010904//EN"
 "http://www.w3.org/TR/2001/REC-SVG-20010904/DTD/svg10.dtd">
<svg version="1.0" xmlns="http://www.w3.org/2000/svg"
 width="160.000000pt" height="160.000000pt" viewBox="0 0 160.000000 160.000000"
 preserveAspectRatio="xMidYMid meet">
<metadata>
Created by potrace 1.11, written by Peter Selinger 2001-2013
</metadata>
<g transform="translate(0.000000,160.000000) scale(0.100000,-0.100000)"
fill="#000000" stroke="none">
<path d="M605 1332 c-6 -4 -21 -21 -33 -39 -12 -17 -47 -44 -77 -59 -64 -31
-71 -39 -54 -61 18 -21 86 -13 132 16 46 28 83 101 67 130 -11 22 -19 25 -35
13z"/>
<path d="M960 1319 c-16 -29 21 -102 67 -130 46 -29 114 -37 132 -16 17 22 10
30 -54 61 -30 15 -65 42 -77 59 -36 52 -51 58 -68 26z"/>
<path d="M525 1014 c-44 -19 -81 -37 -83 -39 -9 -9 12 -68 34 -95 66 -78 174
-23 174 90 0 46 -14 80 -33 79 -7 0 -48 -16 -92 -35z"/>
<path d="M960 1031 c-15 -29 -12 -98 5 -131 31 -61 109 -74 153 -27 21 22 42
68 42 91 0 11 -160 87 -182 86 -4 0 -12 -9 -18 -19z"/>
<path d="M296 839 c-54 -43 -20 -123 51 -117 51 4 81 45 64 86 -12 28 -46 52
-75 52 -7 0 -25 -9 -40 -21z"/>
<path d="M1216 839 c-53 -42 -21 -119 49 -119 l35 0 0 64 c0 49 -4 65 -16 70
-26 10 -40 7 -68 -15z"/>
<path d="M635 640 c-127 -20 -249 -69 -279 -112 -47 -66 6 -128 146 -173 69
-22 72 -24 84 -63 19 -67 53 -111 108 -142 43 -25 62 -30 119 -30 81 0 127 20
180 79 31 35 57 92 57 128 0 6 24 19 53 29 71 23 98 37 130 69 72 73 2 148
-181 196 -89 24 -320 34 -417 19z"/>
</g>
</svg>
